<?xml version="1.0" standalone="no"?><!DOCTYPE svg PUBLIC "-//W3C//DTD SVG 1.1//EN" "http://www.w3.org/Graphics/SVG/1.1/DTD/svg11.dtd"><svg class="icon" width="200px" height="200.00px" viewBox="0 0 1024 1024" version="1.1" xmlns="http://www.w3.org/2000/svg"><path d="M877.952621 344.694619a45.096938 45.096938 0 0 1 22.470645 38.961133l0.696319 397.205313a45.055978 45.055978 0 0 1-22.536181 39.141357l-343.318363 198.000545a44.826602 44.826602 0 0 1-44.867562-0.04096l-344.399707-199.409568a45.113322 45.113322 0 0 1-22.462453-38.952941l-0.65536-397.180738a45.121514 45.121514 0 0 1 22.536181-39.149549l343.318363-197.992353a44.826602 44.826602 0 0 1 44.818411 0z" fill="#E5EBFF" /><path d="M218.701737 282.40268a42.737643 42.737643 0 1 0 85.475287 0 42.737643 42.737643 0 1 0-85.475287 0Z" fill="#FFFFFF" /><path d="M261.439381 264.241025a18.161655 18.161655 0 1 0 18.161655 18.161655 18.186231 18.186231 0 0 0-18.161655-18.161655m0-24.575988a42.737643 42.737643 0 1 1-42.737644 42.737643 42.737643 42.737643 0 0 1 42.737644-42.737643z" fill="#396AFC" /><path d="M335.011697 123.953093a16.973816 16.973816 0 1 0 33.947632 0 16.973816 16.973816 0 1 0-33.947632 0Z" fill="#396AFC" /><path d="M617.955049 140.9351a11.321339 11.321339 0 1 0 22.642678 0 11.321339 11.321339 0 1 0-22.642678 0Z" fill="#396AFC" /><path d="M557.055751 8.191996m-8.191996 0a8.191996 8.191996 0 1 0 16.383992 0 8.191996 8.191996 0 1 0-16.383992 0Z" fill="#396AFC" /><path d="M499.113762 78.684122m-5.660669 0a5.660669 5.660669 0 1 0 11.321339 0 5.660669 5.660669 0 1 0-11.321339 0Z" fill="#396AFC" /><path d="M753.770152 152.248247m-11.321338 0a11.321339 11.321339 0 1 0 22.642677 0 11.321339 11.321339 0 1 0-22.642677 0Z" fill="#396AFC" /><path d="M448.192315 265.428865a22.634485 22.634485 0 1 0 45.26897 0 22.634485 22.634485 0 1 0-45.26897 0Z" fill="#396AFC" /><path d="M832.994946 305.037166a16.973816 16.973816 0 1 0 33.947632 0 16.973816 16.973816 0 1 0-33.947632 0Z" fill="#396AFC" /><path d="M303.103873 450.559784m24.575988 0l360.447827 0q24.575988 0 24.575988 24.575988l0 253.951878q0 24.575988-24.575988 24.575988l-360.447827 0q-24.575988 0-24.575988-24.575988l0-253.951878q0-24.575988 24.575988-24.575988Z" fill="#9AB3FF" /><path d="M327.679861 466.943776a8.191996 8.191996 0 0 0-8.191996 8.191996v253.951878a8.191996 8.191996 0 0 0 8.191996 8.191996h360.447827a8.191996 8.191996 0 0 0 8.191996-8.191996v-253.951878a8.191996 8.191996 0 0 0-8.191996-8.191996h-360.447827m0-16.383992h360.447827a24.575988 24.575988 0 0 1 24.575988 24.575988v253.951878a24.575988 24.575988 0 0 1-24.575988 24.575988h-360.447827a24.575988 24.575988 0 0 1-24.575988-24.575988v-253.951878a24.575988 24.575988 0 0 1 24.575988-24.575988z" fill="#262B3A" /><path d="M303.103873 811.007611m8.191996 0l393.215811 0q8.191996 0 8.191996 8.191996l0 0q0 8.191996-8.191996 8.191996l-393.215811 0q-8.191996 0-8.191996-8.191996l0 0q0-8.191996 8.191996-8.191996Z" fill="#262B3A" /><path d="M412.87662 569.818862a24.575988 24.575988 0 0 1 42.672107 0l23.183349 40.574957a24.575988 24.575988 0 0 1-21.372918 36.77387h-46.366697a24.575988 24.575988 0 0 1-21.29919-36.765678z" fill="#FFFFFF" /><path d="M434.17581 573.824749a8.04454 8.04454 0 0 0-7.110653 4.095998l-23.199733 40.574956a8.191996 8.191996 0 0 0 7.127037 12.287994h46.366697a8.191996 8.191996 0 0 0 7.110653-12.287994l-23.183349-40.542188a8.04454 8.04454 0 0 0-7.110652-4.128766m0-16.383993a24.33842 24.33842 0 0 1 21.299189 12.386298l23.183349 40.574957a24.575988 24.575988 0 0 1-21.29919 36.765678h-46.366697a24.575988 24.575988 0 0 1-21.29919-36.765678l23.183349-40.583149a24.33842 24.33842 0 0 1 21.29919-12.378106z" fill="#262B3A" /><path d="M565.247747 598.015713m-49.151977 0a49.151976 49.151976 0 1 0 98.303953 0 49.151976 49.151976 0 1 0-98.303953 0Z" fill="#396AFC" /><path d="M565.247747 565.247729a32.767984 32.767984 0 1 0 32.767984 32.767984 32.767984 32.767984 0 0 0-32.767984-32.767984m0-16.383992a49.151976 49.151976 0 1 1-49.151977 49.151976 49.151976 49.151976 0 0 1 49.151977-49.151976z" fill="#262B3A" /></svg>